<?xml version="1.0" encoding="utf-8"?>
<!-- Svg Vector Icons : http://www.onlinewebfonts.com/icon -->
<!DOCTYPE svg PUBLIC "-//W3C//DTD SVG 1.1//EN" "http://www.w3.org/Graphics/SVG/1.1/DTD/svg11.dtd">
<svg version="1.1" xmlns="http://www.w3.org/2000/svg" xmlns:xlink="http://www.w3.org/1999/xlink" x="0px" y="0px" viewBox="0 0 1000 1000" enable-background="new 0 0 1000 1000" xml:space="preserve">
<metadata> Svg Vector Icons : http://www.onlinewebfonts.com/icon </metadata>
<g><path d="M867.5,316.3v490c0,101.5-82.3,183.8-183.8,183.8H316.3c-101.5,0-183.8-82.3-183.8-183.8v-490c-33.8,0-61.3-27.4-61.3-61.3s27.4-61.3,61.3-61.3h183.8l0,0C316.3,92.3,398.5,10,500,10c101.4,0,183.8,82.3,183.8,183.8l0,0h183.8c33.9,0,61.3,27.4,61.3,61.3S901.4,316.3,867.5,316.3z M500,132.5c-33.8,0-61.3,27.4-61.3,61.3h122.5C561.3,159.9,533.9,132.5,500,132.5z M255,316.3v490c0,33.9,27.4,61.3,61.3,61.3h367.5c33.9,0,61.3-27.4,61.3-61.3v-490H255z M591.9,745c-16.8,0-30.6-13.7-30.6-30.6v-245c0-16.9,13.8-30.6,30.6-30.6c16.9,0,30.6,13.7,30.6,30.6v245C622.5,731.3,608.8,745,591.9,745z M408.1,745c-16.9,0-30.6-13.7-30.6-30.6v-245c0-16.9,13.7-30.6,30.6-30.6s30.6,13.7,30.6,30.6v245C438.8,731.3,425,745,408.1,745z"/></g>
</svg>